<svg width="42" height="42" viewBox="0 0 42 42" fill="none" xmlns="http://www.w3.org/2000/svg">
<path d="M32.1205 7.49979C30.7632 7.49979 29.6582 8.60231 29.6582 9.96206C29.6582 11.3218 30.7632 12.4268 32.1205 12.4268C33.4827 12.4268 34.5852 11.3218 34.5852 9.96206C34.5852 8.60231 33.4827 7.49979 32.1205 7.49979Z" fill="white"/>
<path d="M21.1735 27.628C17.5206 27.628 14.5487 24.6537 14.5487 21.0008C14.5487 17.3478 17.5206 14.3759 21.1735 14.3759C24.8289 14.3759 27.8008 17.3478 27.8008 21.0008C27.8008 24.6537 24.8289 27.628 21.1735 27.628ZM21.1735 10.6568C15.4699 10.6568 10.832 15.2971 10.832 21.0008C10.832 26.7044 15.4699 31.3447 21.1735 31.3447C26.8796 31.3447 31.5175 26.7044 31.5175 21.0008C31.5175 15.2971 26.8796 10.6568 21.1735 10.6568Z" fill="white"/>
<path d="M12.6151 3.95179C7.83758 3.95179 3.9519 7.83751 3.9519 12.6175V29.3854C3.9519 34.1653 7.83758 38.0511 12.6151 38.0511H29.3854C34.1629 38.0511 38.0511 34.1653 38.0511 29.3854V12.6175C38.0511 7.83751 34.1629 3.95179 29.3854 3.95179H12.6151ZM29.3854 42.0029H12.6151C5.65952 42.0029 0 36.3434 0 29.3854V12.6175C0 5.65945 5.65952 -8.01086e-05 12.6151 -8.01086e-05H29.3854C36.3435 -8.01086e-05 42.0005 5.65945 42.0005 12.6175V29.3854C42.0005 36.3434 36.3435 42.0029 29.3854 42.0029Z" fill="white"/>
</svg>
