<svg width="220" height="84" viewBox="0 0 220 84" fill="none" xmlns="http://www.w3.org/2000/svg">
<path d="M20.9949 6.7207H32.8325L38.6396 42.1127H29.0355L28.1421 34.4967H14.5178L10.2741 42.1127H0L20.9949 6.7207ZM25.6853 14.1127L18.0914 28.0007H27.2487L25.6853 14.1127Z" fill="#9D9D9C"/>
<path d="M58.7414 42.1127H47.1272L42.6602 6.7207H52.0409L54.4977 33.6007L68.1221 6.7207H78.3962L58.7414 42.1127Z" fill="#F39200"/>
<path d="M89.3397 6.7207H101.177L106.984 42.1127H97.3803L96.4869 34.4967H82.8625L78.6188 42.1127H68.3447L89.3397 6.7207ZM94.03 14.1127L86.4361 28.0007H95.5935L94.03 14.1127Z" fill="#9D9D9C"/>
<path d="M117.706 6.7207H129.543L136.691 31.3607L141.604 6.7207H150.538L142.945 42.1127H131.107L123.736 17.4727L118.823 42.1127H109.889L117.706 6.7207Z" fill="#9D9D9C"/>
<path d="M184.487 15.2322C181.584 13.4402 178.68 12.9922 175.777 12.9922C166.396 12.9922 162.599 19.7122 162.599 26.4322C162.599 32.7042 166.619 35.6162 172.203 35.6162C175.553 35.6162 178.68 34.9442 181.137 33.6002L180.02 41.2162C177.787 41.8882 173.766 42.5602 170.64 42.5602C159.249 42.5602 152.771 35.8402 152.771 25.9842C152.771 14.1122 161.035 5.82422 174.213 5.82422C180.914 5.82422 184.711 6.94422 186.721 7.61622L184.487 15.2322Z" fill="#9D9D9C"/>
<path d="M193.868 6.7207H218.66L217.32 13.4407H201.686L200.122 20.8327H214.863L213.3 27.5527H198.782L196.995 35.6167H213.076L211.736 42.3367H186.274L193.868 6.7207Z" fill="#9D9D9C"/>
<path d="M68.569 53.3125H75.9395L79.5131 75.9365H73.706L73.036 71.0085H64.3253L61.6451 75.9365H55.168L68.569 53.3125ZM71.4725 57.7925L66.5588 66.5285H72.3659L71.4725 57.7925Z" fill="#F39200"/>
<path d="M93.8078 75.4875C92.6911 75.9355 91.1276 76.1595 88.8941 76.1595C83.9804 76.1595 80.8535 72.7995 80.8535 68.5435C80.8535 62.9435 85.3205 58.6875 91.7977 58.6875C93.1378 58.6875 95.3713 59.1355 97.1581 59.8075L95.818 63.8395C94.7012 63.3915 93.3611 62.9435 92.021 62.9435C89.1175 62.9435 86.884 64.9595 86.884 68.3195C86.884 70.3355 88.4474 71.9035 90.9043 71.9035C92.4677 71.9035 93.3611 71.6795 94.7012 71.2315L93.8078 75.4875Z" fill="#F39200"/>
<path d="M108.772 73.4709C107.432 75.4869 105.421 76.1589 102.965 76.1589C99.391 76.1589 97.3809 74.5909 97.3809 71.2309C97.3809 67.1989 101.401 64.9589 106.538 64.9589C107.655 64.9589 108.772 64.9589 109.665 65.1829C109.665 64.9589 109.665 64.7349 109.665 64.5109C109.665 63.3909 108.548 62.2709 106.538 62.2709C104.528 62.2709 102.965 62.4949 101.178 63.6149L101.848 59.3589C103.635 58.6869 105.421 58.4629 108.102 58.4629C112.122 58.4629 115.472 60.0309 115.472 64.2869C115.472 66.9749 113.909 70.7829 113.239 75.7109H108.548L108.772 73.4709ZM104.751 72.3509C107.208 72.3509 108.772 70.5589 109.218 68.3189C108.772 68.3189 108.102 68.3189 107.655 68.3189C104.975 68.3189 102.741 69.2149 102.741 70.7829C102.741 71.4549 103.635 72.3509 104.751 72.3509Z" fill="#F39200"/>
<path d="M129.99 73.0235C128.427 74.8155 127.086 76.1595 123.736 76.1595C120.163 76.1595 117.482 73.0235 117.482 69.2155C117.482 63.6155 120.163 58.4635 125.97 58.4635C128.873 58.4635 130.883 59.8075 131.777 61.5995L134.01 51.5195H139.817L135.35 73.2475C135.127 74.1435 135.127 75.0395 134.904 75.7115H129.543L129.99 73.0235ZM130.66 66.5275C130.66 64.7355 129.767 63.1675 127.98 63.1675C125.3 63.1675 123.513 65.8555 123.513 68.3195C123.513 70.3355 124.406 71.6795 126.193 71.6795C129.097 71.6795 130.66 68.7675 130.66 66.5275Z" fill="#F39200"/>
<path d="M153.442 75.2635C151.431 75.9355 149.198 76.1595 147.634 76.1595C142.051 76.1595 138.924 72.7995 138.924 68.5435C138.924 64.7355 141.604 58.6875 148.975 58.6875C153.442 58.6875 156.792 60.9275 156.792 66.0795C156.792 66.7515 156.568 68.3195 156.345 69.2155H144.508C144.508 71.0075 145.401 72.3515 148.975 72.3515C150.538 72.3515 152.548 71.9035 154.335 71.2315L153.442 75.2635ZM151.878 65.8555C151.878 64.0635 151.208 62.4955 148.975 62.4955C146.518 62.4955 145.178 64.2875 144.731 65.8555H151.878Z" fill="#F39200"/>
<path d="M160.366 63.3915C160.59 62.0475 160.813 60.4795 161.036 58.9115H166.173L165.503 62.0475C166.843 59.8075 169.077 58.6875 171.534 58.6875C173.544 58.6875 175.554 59.8075 176.001 62.0475C177.341 59.8075 179.574 58.6875 182.031 58.6875C184.711 58.6875 187.168 60.0315 187.168 63.6155C187.168 64.7355 186.945 66.3035 186.722 67.4235L184.935 75.9355H179.128L180.915 67.6475C181.138 66.7515 181.138 65.8555 181.138 65.1835C181.138 64.0635 180.691 63.3915 179.351 63.3915C176.894 63.3915 176.224 66.3035 176.001 68.0955L174.437 75.9355H168.63L170.417 67.6475C170.64 66.7515 170.64 65.8555 170.64 65.1835C170.64 64.0635 170.194 63.3915 168.854 63.3915C166.397 63.3915 165.727 66.3035 165.503 68.0955L163.94 75.9355H158.133L160.366 63.3915Z" fill="#F39200"/>
<path d="M197.888 77.9521C196.102 80.8641 194.315 82.8801 190.518 82.8801C188.508 82.8801 187.168 82.4321 186.051 82.2081L187.168 77.9521C187.838 78.1761 188.731 78.4001 189.848 78.4001C191.411 78.4001 192.528 77.2801 193.198 75.7121L189.401 58.9121H195.208L196.772 69.6641L202.579 58.9121H208.832L197.888 77.9521Z" fill="#F39200"/>
</svg>
